<?xml version="1.0" encoding="iso-8859-1"?><!-- Generator: Adobe Illustrator 22.1.0, SVG Export Plug-In . SVG Version: 6.00 Build 0)  --><svg xmlns="http://www.w3.org/2000/svg" xmlns:xlink="http://www.w3.org/1999/xlink" viewBox="0 0 50 50" width="50px" height="50px"><path d="M28.5,11c-0.828,0-1.5,0.672-1.5,1.5s0.672,1.5,1.5,1.5s1.5-0.672,1.5-1.5C30,11.671,29.328,11,28.5,11z"/><path d="M41.561,26.439L38,22.879c0-4.554,0-9.41,0-10.015c1.724-0.445,3-2.002,3-3.864c0-2.209-1.791-4-4-4c-0.699,0-1.344,0.196-1.909,0.518C35.091,5.518,32,2,25,2S14.909,5.518,14.909,5.518C14.344,5.196,13.699,5,13,5c-2.209,0-4,1.791-4,4c0,1.863,1.276,3.419,3,3.864c0,0.604,0,5.461,0,10.015L8.439,26.44c-0.586,0.586-0.586,1.535,0,2.121C8.732,28.854,9.116,29,9.5,29s0.768-0.146,1.061-0.439l1.342-1.342C11.652,29.895,11,31.154,11,36c0,2.529,1.223,5.24,3.54,7.339l-2.101,2.101c-0.586,0.586-0.586,1.535,0,2.121C12.732,47.854,13.116,48,13.5,48s0.768-0.146,1.061-0.439l2.47-2.47l0,0C19.165,46.26,21.828,47,25,47s5.835-0.74,7.97-1.909l0,0l2.47,2.47C35.732,47.854,36.116,48,36.5,48s0.768-0.146,1.061-0.439c0.586-0.586,0.586-1.535,0-2.121l-2.101-2.101C37.777,41.24,39,38.529,39,36c0-4.846-0.652-6.105-0.903-8.782l1.342,1.342C39.732,28.854,40.116,29,40.5,29s0.768-0.146,1.061-0.439C42.146,27.975,42.146,27.025,41.561,26.439z M12.982,9.996C12.438,9.986,12,9.546,12,9c0-0.552,0.448-1,1-1c0.299,0,0.551,0.143,0.733,0.352C13.423,8.865,13.166,9.414,12.982,9.996z M25,16c1.105,0,2,0.448,2,1s-0.895,1-2,1s-2-0.448-2-1S23.895,16,25,16z M16,12.499c0.001-1.933,1.568-3.499,3.501-3.498c1.933,0.001,3.499,1.568,3.498,3.501S21.43,16.001,19.498,16C17.565,15.999,15.999,14.431,16,12.499z M27,25c0,0.553-0.448,1-1,1s-1-0.447-1-1c0,0.553-0.448,1-1,1s-1-0.447-1-1v-1.154C23.583,23.942,24.24,24,25,24s1.417-0.058,2-0.154V25z M25,22c-4,0-4-1.5-4-2c0-0.525,0.189-1.046,0.492-1.506C22.152,19.413,23.425,20,25,20c1.577,0,2.851-0.587,3.506-1.509C28.811,18.952,29,19.474,29,20C29,20.5,29,22,25,22z M30.497,16c-1.933-0.001-3.499-1.568-3.498-3.501C27,10.566,28.567,9,30.5,9.001s3.499,1.568,3.498,3.501S32.43,16.001,30.497,16z M37.018,9.996c-0.184-0.583-0.441-1.131-0.751-1.644C36.449,8.143,36.701,8,37,8c0.552,0,1,0.448,1,1C38,9.546,37.562,9.986,37.018,9.996z"/><path d="M17.5,11c-0.828,0-1.5,0.672-1.5,1.5s0.672,1.5,1.5,1.5s1.5-0.672,1.5-1.5C19,11.671,18.329,11,17.5,11z"/></svg>