<?xml version="1.0" encoding="iso-8859-1"?>
<!-- Generator: Adobe Illustrator 25.3.1, SVG Export Plug-In . SVG Version: 6.00 Build 0)  -->
<svg version="1.1" id="Layer_1" xmlns="http://www.w3.org/2000/svg" xmlns:xlink="http://www.w3.org/1999/xlink" x="0px" y="0px"
	 viewBox="0 0 24 24" style="enable-background:new 0 0 24 24;" xml:space="preserve">
<path d="M7.984,5.85c-0.009-0.024-0.23-0.601-0.743-0.829C7.209,5.007,7.174,5,7.14,5C7.125,5,6.777,5.001,6.376,5.101
	c-0.081,0.021-0.146,0.08-0.175,0.158C6.173,5.337,6.186,5.424,6.235,5.492l1.032,1.406C7.314,6.962,7.372,7.025,7.469,7
	c0.079,0,0.152-0.037,0.2-0.1C7.996,6.464,8,5.959,8,5.938C8,5.908,7.995,5.878,7.984,5.85z"/>
<path d="M22.712,21.883c-0.5-0.883-1.445-2.154-2.408-3.375c0.656-0.21,1.394-0.365,1.927-0.462
	c0.355-0.065,0.526-0.474,0.321-0.771c-0.274-0.395-0.674-0.925-1.177-1.457c-1.411-1.492-2.962-2.338-3.778-2.687
	c-0.333-1.267-1.335-4.518-3.43-7.241c-1.199-1.559-2.474-2.49-4.546-3.319c-1.227-0.49-2.703-0.549-3.36-0.565
	c-0.543-0.298-1.714-0.931-2.924-1c-0.803-0.046-1.62,0.334-2.032,1.025C1.106,2.368,1.003,2.737,1.001,3.123
	C1,4.054,1.601,4.81,1.96,5.261c0.063,0.08,0.121,0.15,0.18,0.235l0.162,0.214c0.162,0.211,0.345,0.45,0.402,0.57
	C2.724,6.336,2.75,6.432,2.784,6.554c0.157,0.565,0.45,1.616,0.916,2.415C3.887,9.292,4.151,9.695,4.341,9.98
	C4.214,10.616,4,11.788,4,12.5c0,1.25,0.259,2.254,0.824,3.172C5.033,16,5.671,17,6.75,17c0.383,0,1.02-0.15,1.192-1.1
	c0.765,0.987,1.686,2.035,3.289,3.01c0,0,0,0,0,0C11.31,18.962,11.399,19,11.5,19c0.276,0,0.5-0.224,0.5-0.5
	c0-0.167-0.087-0.308-0.214-0.399c0,0,0,0,0,0c-1.37-1.321-3.181-3.533-3.911-5.339c-0.151-0.375-0.649-0.432-0.868-0.092
	c-0.228,0.355-0.494,0.834-0.742,1.439C6.084,13.651,6,13.135,6,12.5c0-0.466,0.263-1.861,0.398-2.548
	c0.05-0.253-0.002-0.507-0.147-0.721C6.005,8.868,5.619,8.291,5.427,7.962C5.091,7.386,4.843,6.496,4.71,6.018
	C4.646,5.786,4.594,5.616,4.546,5.502c-0.175-0.38-0.43-0.713-0.654-1.007L3.765,4.33c-0.063-0.091-0.146-0.197-0.24-0.314
	c-0.183-0.23-0.524-0.658-0.514-0.934l0.113-0.078L3.125,3c0.795,0,1.82,0.564,2.206,0.776c0.125,0.069,0.218,0.117,0.267,0.139
	l0.174,0.076l0.341,0.012c0.447,0.01,1.806,0.041,2.766,0.425c1.751,0.7,2.72,1.402,3.704,2.681c1.321,1.717,2.168,3.722,2.654,5.14
	c0.226,0.658,0.422,1.407,0.54,1.891c0.077,0.317,0.306,0.569,0.61,0.686c0.439,0.169,1.093,0.445,1.614,0.769
	c0.443,0.275,0.938,0.633,1.42,1.085c-1.095,0.271-1.754,0.702-2.102,0.997c-0.206,0.175-0.225,0.483-0.05,0.689
	c0.338,0.398,1.086,1.058,2.482,2.008c1.049,0.714,2.159,2.12,2.369,2.438l0,0C22.211,22.925,22.344,23,22.5,23
	c0.276,0,0.5-0.224,0.5-0.5c0-0.104-0.031-0.2-0.085-0.28C22.897,22.194,22.764,21.975,22.712,21.883z"/>
</svg>